<?xml version="1.0" encoding="UTF-8"?>
<svg id="Layer_2" data-name="Layer 2" xmlns="http://www.w3.org/2000/svg" xmlns:xlink="http://www.w3.org/1999/xlink" viewBox="0 0 1526.04 519.28">
  <defs>
    <style>
      .cls-1 {
        fill: url(#linear-gradient-2);
      }

      .cls-2 {
        fill: #212a48;
      }

      .cls-3 {
        fill: url(#linear-gradient-6);
      }

      .cls-4 {
        fill: url(#linear-gradient-5);
      }

      .cls-5 {
        fill: url(#linear-gradient-7);
      }

      .cls-6 {
        fill: url(#linear-gradient-3);
      }

      .cls-7 {
        fill: url(#linear-gradient);
      }

      .cls-8 {
        fill: url(#linear-gradient-4);
      }

      .cls-9 {
        fill: url(#linear-gradient-8);
      }
    </style>
    <linearGradient id="linear-gradient" x1="-47.43" y1="389.55" x2="491.25" y2="399.31" gradientUnits="userSpaceOnUse">
      <stop offset="0" stop-color="#f1a408"/>
      <stop offset="1" stop-color="#d70f0e"/>
    </linearGradient>
    <linearGradient id="linear-gradient-2" x1="-41.4" y1="111.59" x2="497.27" y2="121.35" xlink:href="#linear-gradient"/>
    <linearGradient id="linear-gradient-3" x1="-43.56" y1="395.84" x2="495.12" y2="405.61" xlink:href="#linear-gradient"/>
    <linearGradient id="linear-gradient-4" x1="-38.32" y1="107.1" x2="500.35" y2="116.87" xlink:href="#linear-gradient"/>
    <linearGradient id="linear-gradient-5" x1="-40.99" y1="254.26" x2="497.68" y2="264.03" xlink:href="#linear-gradient"/>
    <linearGradient id="linear-gradient-6" x1="-44.13" y1="427.39" x2="494.54" y2="437.16" xlink:href="#linear-gradient"/>
    <linearGradient id="linear-gradient-7" x1="-37.84" y1="80.63" x2="500.83" y2="90.4" xlink:href="#linear-gradient"/>
    <linearGradient id="linear-gradient-8" x1="-41.01" y1="255.11" x2="497.67" y2="264.88" xlink:href="#linear-gradient"/>
  </defs>
  <g id="Finished">
    <g>
      <g>
        <path class="cls-7" d="m436.89,455.82c44.6-21.14,81.79-55.38,106.58-97.76l-31.23-15.86c-14.67,44.38-40.99,83.46-75.35,113.62Z"/>
        <path class="cls-1" d="m513.85,179.98l31.22-14.94c-24.84-44.86-63.39-81.17-110.14-103.14,36.3,30.91,63.97,71.64,78.92,118.07Z"/>
        <path class="cls-6" d="m502.24,341.2l-23.04-11.7c-21.86,31.97-51.12,58.48-85.3,77.07-26.28,31.6-60.87,56.04-100.41,69.99,9.47,1.11,19.1,1.7,28.86,1.7,37.41,0,72.85-8.41,104.54-23.43,34.35-30.16,60.67-69.23,75.35-113.62Z"/>
        <path class="cls-8" d="m479.16,191.31l23.69-11.33c-14.96-46.44-42.63-87.16-78.92-118.07-29.83-14.01-62.99-22.19-98.05-23.02-12.83-.3-25.44.41-37.78,2.02,40.58,13.18,76.21,37.33,103.38,68.96,35.57,19.52,65.7,47.62,87.67,81.45Z"/>
        <path class="cls-4" d="m502.85,179.98c-14.96-46.44-42.63-87.16-78.92-118.07C378.61,23.31,319.87,0,255.68,0,171,0,95.79,40.55,48.39,103.29,90.39,58.02,150.38,29.68,217,29.68c24.82,0,48.71,3.95,71.11,11.22,40.58,13.18,76.21,37.33,103.38,68.96,34.57,40.24,55.47,92.57,55.47,149.78s-19.93,107.08-53.06,146.93c-26.28,31.6-60.87,56.04-100.41,69.99-23.93,8.44-49.67,13.04-76.48,13.04-66.62,0-126.61-28.34-168.61-73.61,47.4,62.74,122.6,103.29,207.29,103.29,65.6,0,125.5-24.34,171.21-64.46,34.35-30.16,60.67-69.23,75.35-113.62,8.48-25.65,13.09-53.07,13.09-81.56s-4.38-54.56-12.47-79.67Z"/>
        <path class="cls-3" d="m276.49,473.92c43.74-12.77,72.01-34.37,87.28-46.94-25.28,8.04-59.17,9.15-86.48,9.15-53.42,0-102.83-17.15-143.05-46.23,35.54,42.79,85.42,73.22,142.25,84.01Z"/>
        <path class="cls-5" d="m272.49,42.97c46.35,13.17,72.01,34.37,87.28,46.94-25.28-8.04-59.17-9.15-86.48-9.15-53.42,0-102.83,17.15-143.05,46.23,35.54-42.79,85.42-73.22,142.25-84.01Z"/>
        <path class="cls-9" d="m67.56,421.38c60.6,61.36,142.12,67.84,193.36,57.56-104.13-19.49-182.92-108.65-182.92-218.46S158.28,58.91,263.6,40.05c-11.77-1.9-26.62-3.03-38.92-3.24C105.06,34.75,0,130.04,0,261.48c0,63.31,25.81,119.77,67.56,159.9Z"/>
      </g>
      <g>
        <path class="cls-2" d="m634.79,169.56c12.21-2.82,30.15-4.46,46.74-4.46s35.73,2.75,49.01,13.53c11.61,8.82,18.14,22.5,18.14,38.65,0,24.92-11.54,43.85-25.7,55.13-14.95,12.04-36.42,17.66-57.67,17.66-5.66,0-10.66-.56-14.48-.95l-13.34,69.77h-38.62l35.92-189.33Zm22.12,87.2c3.78.69,7.56,1.14,13.17,1.14,25.14,0,38.89-18.85,38.89-37.36,0-16.83-11.14-23.75-26.49-23.75-6.41,0-11.32.42-14.32,1.15l-11.24,58.83Z"/>
        <path class="cls-2" d="m745.86,358.89l16.46-86.74c3.65-19.52,5.53-40.79,7.11-53.15h34.11c-.67,8.82-1.34,17.66-2.41,27.08h.94c9.97-18.32,24.62-29.97,41.57-29.97,2.49,0,4.89.14,7.1.42l-7.65,38.84c-1.61-.17-4.04-.31-6.29-.31-22.98,0-36.01,21.73-40.93,48.06l-10.48,55.77h-39.52Z"/>
        <path class="cls-2" d="m981.85,271.21c0,48.85-31.56,90.57-78.2,90.57-35.47,0-54.38-24.42-54.38-54.96,0-47.99,31.48-90.7,78.94-90.7,36.91,0,53.64,26.87,53.64,55.1Zm-92.2,34.54c0,14.49,5.87,25.87,19.22,25.87,20.78,0,32.6-37.35,32.6-61.49,0-11.9-4.65-23.86-18.7-23.86-21.26,0-33.23,37.09-33.12,59.47Z"/>
        <path class="cls-2" d="m1069.3,157.51l-16.1,78.53.57.03c9.74-12.37,23.75-19.96,39.83-19.96,27.86,0,38.24,24.44,38.24,46.22,0,47.4-29.34,99.44-87.89,99.44-30.53,0-45.63-13.12-45.51-36.62,0-8.25,1.31-16.61,2.76-23.75l28.65-143.89h39.45Zm-28.95,144.94c-.88,4.65-1.81,9.48-1.57,15.15.24,9.22,5.06,14.55,13.98,14.55,22.54,0,37.83-37.3,37.83-60.38,0-13.09-4.32-23.14-15.94-23.14-13.17,0-26.23,14.48-30.54,35.96l-3.75,17.87Z"/>
        <path class="cls-2" d="m1226.4,358.89c.31-7.97.99-16.93,1.65-26.44h-.79c-12.31,21.85-28.9,29.32-43.61,29.32-23.66,0-38.74-18.85-38.74-46.66,0-45.7,28.28-99,94.43-99,15.89,0,32.6,3.06,43.39,6.64l-15,74.57c-3.4,17.46-6.02,44.78-5.66,61.57h-35.68Zm12.2-111.8c-3.04-.7-6.59-1.11-10.08-1.11-25.68,0-43.02,36.87-43.1,61.21-.06,13.29,4.39,22.53,15.02,22.53,11.47,0,24.93-14.56,30.9-46.17l7.26-36.46Z"/>
        <path class="cls-2" d="m1294.15,323.97c7.22,3.69,19.84,8.6,32.25,8.49,11.25-.11,17.18-6.06,17.18-13.58s-4.3-12.07-16.28-18.81c-14.89-8.46-26-20.5-26-36.22,0-27.97,23.86-47.74,58.53-47.74,15.06,0,26.7,3.04,33.01,6.66l-9.15,28.15c-5.33-2.61-14.19-5.55-24.55-5.55-11.01,0-18.27,5.11-18.27,13.22,0,6.17,5.2,10.85,15.09,16.26,15.36,9.05,28.15,20.87,28.15,37.74,0,31.63-25.44,48.92-60.99,48.92-16.22,0-31.35-4.5-38.59-9.77l9.61-27.76Z"/>
        <path class="cls-2" d="m1508.99,351.44c-15.11,7.32-32.99,10.06-48.68,10.06-38.33,0-56.6-22.64-56.6-57.13,0-41.95,28.36-88.26,77.1-88.26,27.57,0,45.13,16.87,45.24,40.84,0,36.32-33.49,49.72-84.36,48.32.02,4,1.12,10.63,4.08,14.93,4.79,6.71,13.2,10.55,24.53,10.55,14.07,0,25.65-3.27,35.97-8.3l2.72,28.99Zm-33.07-105.58c-16.63,0-27.31,15.21-30.41,30.33,28.01.47,44.03-4.87,44.03-18.19,0-7.33-5.05-12.14-13.62-12.14Z"/>
      </g>
    </g>
  </g>
</svg>